PathFileType	4	(X/Y/Z)	SUBJ82_3_walk_RCNL2025.trc
DataRate	CameraRate	NumFrames	NumMarkers	Units	OrigDataRate	OrigDataStartFrame	OrigNumFrames
100	100	4	25	mm	100	57	225
Frame#	Time	R_Shoulder			L_Shoulder			C7			J_Notch			R_Elbow			L_Elbow			R_Wrist			L_Wrist			R_Asis			L_Asis			Sacral			Thoracic			Sternum			R_Thigh_Lateral			R_Knee_Lateral			R_Shank_Lateral			R_Ankle_Lateral			R_Heel			R_Toe			L_Thigh_Lateral			L_Knee_Lateral			L_Shank_Lateral			L_Ankle_Lateral			L_Heel			L_Toe		
		X1	Y1	Z1	X2	Y2	Z2	X3	Y3	Z3	X4	Y4	Z4	X5	Y5	Z5	X6	Y6	Z6	X7	Y7	Z7	X8	Y8	Z8	X9	Y9	Z9	X10	Y10	Z10	X11	Y11	Z11	X12	Y12	Z12	X13	Y13	Z13	X14	Y14	Z14	X15	Y15	Z15	X16	Y16	Z16	X17	Y17	Z17	X18	Y18	Z18	X19	Y19	Z19	X20	Y20	Z20	X21	Y21	Z21	X22	Y22	Z22	X23	Y23	Z23	X24	Y24	Z24	X25	Y25	Z25
57	0.56000000	-1173.880981	1416.285278	479.203644	-1141.438721	1443.713257	73.098160	-1214.327637	1522.830566	281.640747	-1091.358276	1405.196899	280.551697	-1241.181274	1079.024780	542.863342	-1218.962524	1104.871460	-14.164170	-1146.703857	835.993988	522.859680	-1123.265991	859.200226	-3.135744	-1121.333984	994.547974	412.897491	-1105.408936	997.812805	145.987564	-1295.029297	1015.175293	257.226013	-1307.997559	1289.310059	255.213806	-1068.752319	1227.870972	274.124023	-1144.354370	560.677856	438.525421	-1137.535645	476.818909	385.961304	-1166.591919	249.505661	429.609863	-1162.932983	70.469803	323.403717	-1206.009521	42.718334	279.181946	-1024.862671	47.613529	302.522736	-1128.667969	560.276184	72.318794	-1118.985107	496.402893	109.048752	-1267.502441	342.546967	68.542557	-1401.863770	207.112534	131.540665	-1441.549561	214.455673	188.953354	-1320.008667	88.894226	142.603149
58	0.57000000	-1159.306763	1419.212891	479.810486	-1128.314087	1445.287720	73.418304	-1200.377441	1524.853149	282.108276	-1077.241699	1407.510376	280.969513	-1224.161621	1081.941406	545.733215	-1209.535645	1107.098145	-12.786130	-1126.113220	840.328308	525.156647	-1119.062744	859.428070	-0.903758	-1108.437866	995.709106	414.341736	-1091.197632	1000.420044	147.694229	-1281.180664	1017.748840	257.129669	-1293.769043	1291.212646	256.602936	-1054.734741	1230.123291	275.074097	-1140.094482	561.384583	438.455688	-1134.724854	477.281952	385.769348	-1166.455688	250.198486	429.466278	-1163.009399	70.759697	323.412659	-1206.015015	43.048519	279.119568	-1024.914673	47.572025	302.825500	-1103.684937	564.075684	73.446625	-1093.470825	499.872284	110.929451	-1235.263184	339.235870	70.180389	-1363.806030	198.037292	133.287247	-1404.436035	203.265335	190.353577	-1275.553345	85.154701	144.272690
59	0.58000000	-1144.759521	1421.753296	480.429077	-1115.102661	1446.503296	73.802719	-1186.481689	1526.506104	282.592743	-1063.185059	1409.441406	281.425873	-1207.263550	1084.506592	548.577271	-1200.196533	1109.053711	-11.373140	-1105.660339	844.359558	527.391785	-1114.826965	859.568390	1.332004	-1095.605835	996.533020	415.736603	-1076.950562	1002.617126	149.336121	-1267.358398	1019.873535	256.931915	-1279.582275	1292.761719	257.905182	-1040.763672	1231.971680	276.067566	-1135.645630	561.985535	438.319763	-1131.690308	477.680145	385.486786	-1166.068848	250.864700	429.238831	-1163.027344	71.066750	323.344818	-1205.958618	43.369312	278.947021	-1024.927490	47.512440	303.061310	-1078.902832	567.695435	74.461304	-1068.469971	502.966034	112.820023	-1202.625000	335.016937	71.954430	-1324.820435	188.131256	135.211548	-1366.276245	191.171539	191.917770	-1230.325806	81.128372	146.309402
60	0.59000000	-1130.223389	1423.867432	481.055481	-1101.808228	1447.349609	74.241142	-1172.630737	1527.775146	283.095673	-1049.183350	1410.970093	281.912689	-1190.468872	1086.681396	551.393005	-1190.908569	1110.716187	-9.910319	-1085.356445	848.040680	529.566711	-1110.520874	859.581757	3.561722	-1082.817383	997.016785	417.065430	-1062.671021	1004.365234	150.891571	-1253.553345	1021.529114	256.652557	-1265.438232	1293.946289	259.102051	-1026.828613	1233.391724	277.081451	-1130.955811	562.472595	438.127258	-1128.395142	478.001953	385.124237	-1165.414429	251.493011	428.935089	-1162.983398	71.382095	323.192383	-1205.841187	43.674549	278.659424	-1024.897339	47.440334	303.224213	-1054.458130	571.063660	75.410767	-1044.049805	505.648193	114.716682	-1169.624268	330.028320	73.859566	-1284.903442	177.593582	137.304504	-1327.026978	178.380249	193.664795	-1184.377686	77.014984	148.641907
